<?xml version="1.0" standalone="no"?>
<!DOCTYPE svg PUBLIC "-//W3C//DTD SVG 1.1//EN"
  "http://www.w3.org/Graphics/SVG/1.1/DTD/svg11.dtd">
<svg width="78.88399887084961mm" height="99.59999656677246mm" viewBox="-40.694000244140625 -72.40899658203125 78.88399887084961 99.59999656677246" xmlns="http://www.w3.org/2000/svg" version="1.1">
	<title>svgOutput</title>
	<desc>made with tinkercad</desc>
<path d="M -34.40823745727539 -34.99303436279297 L -30.368000030517578 -36.66699981689453 L -31.899999618530273 -40.36600112915039 L -35.94039535522461 -38.69197082519531 L -37.43199920654297 -42.292999267578125 L -30.041000366210938 -45.35499954223633 L -28.549604415893555 -41.754146575927734 L -28.510154724121094 -41.65890121459961 L -9.503000259399414 -49.53188705444336 L -6.065900802612305 -50.95557403564453 L -7.002999782562256 -51.34373092651367 L -9.503000259399414 -52.3792610168457 L -30.605831146240234 -61.120304107666016 L -30.73468589782715 -60.80921936035156 L -32.303001403808594 -57.02299880981445 L -39.694000244140625 -60.08399963378906 L -38.1256217956543 -63.87071990966797 L -34.084999084472656 -62.196998596191406 L -32.553001403808594 -65.89600372314453 L -36.59343719482422 -67.5700454711914 L -35.10200119018555 -71.1709976196289 L -27.711000442504883 -68.10900115966797 L -29.07502555847168 -64.81597137451172 L -9.503000259399414 -56.709007263183594 L -7.002999782562256 -55.67347717285156 L -7.002999782562256 -51.99800109863281 L -4.5 -51.99800109863281 L -4.400000095367432 -51.99800109863281 L -3.953000068664551 -51.99800109863281 L 2.1410000324249268 -51.99800109863281 L 2.700000047683716 -51.99800109863281 L 5.002999782562256 -51.99800109863281 L 5.002999782562256 -55.540443420410156 L 8.426243782043457 -56.95839309692383 L 9.003000259399414 -57.19729232788086 L 26.776248931884766 -64.5591812133789 L 26.775562286376953 -64.56083679199219 L 25.207000732421875 -68.3479995727539 L 32.597999572753906 -71.40899658203125 L 34.166236877441406 -67.62296295166016 L 30.125999450683594 -65.9489974975586 L 30.12681770324707 -65.947021484375 L 31.657257080078125 -62.251792907714844 L 31.658000946044922 -62.25 L 35.34206008911133 -63.77639389038086 L 35.698394775390625 -63.92403030395508 L 37.189998626708984 -60.323001861572266 L 33.232479095458984 -58.683448791503906 L 29.798999786376953 -57.26100158691406 L 28.30760383605957 -60.86185073852539 L 28.30672836303711 -60.86396408081055 L 25.837509155273438 -59.841182708740234 L 9.9567232131958 -53.26317596435547 L 9.003000259399414 -52.868133544921875 L 5.3142900466918945 -51.34022521972656 L 5.313833713531494 -51.34003829956055 L 5.002999782562256 -51.21128463745117 L 4.386364459991455 -50.955867767333984 L 9.003000259399414 -49.043601989746094 L 12.263795852661133 -47.69294357299805 L 19.96754264831543 -44.50196075439453 L 26.275930404663086 -41.888954162597656 L 26.27695083618164 -41.89141845703125 L 27.844999313354492 -45.676998138427734 L 35.236000061035156 -42.61600112915039 L 33.667625427246094 -38.829288482666016 L 29.628000259399414 -40.50299835205078 L 28.094999313354492 -36.80400085449219 L 32.13557815551758 -35.13029479980469 L 30.643999099731445 -31.52899932861328 L 23.253000259399414 -34.590999603271484 L 24.74452781677246 -38.19184494018555 L 24.74512481689453 -38.19328689575195 L 14.428445816040039 -42.466575622558594 L 9.003000259399414 -44.71385955810547 L 3.9739718437194824 -46.79694366455078 L 2.700000047683716 -47.32463455200195 L 2.700000047683716 0.6210583448410035 L 2.700000047683716 8.484251976013184 L 5.013559341430664 9.442631721496582 L 6.546514987945557 10.077651023864746 L 14.832842826843262 6.645717620849609 L 24.459312438964844 2.6587395668029785 L 22.966999053955078 -0.9440000057220458 L 30.357999801635742 -4.00600004196167 L 31.926469802856445 -0.21906140446662892 L 27.88599967956543 1.4550000429153442 L 29.417999267578125 5.1539998054504395 L 33.45851135253906 3.479921817779541 L 34.95000076293945 7.080999851226807 L 27.55900001525879 10.142000198364258 L 26.067842483520508 6.542048931121826 L 25.989765167236328 6.353553771972656 L 23.392900466918945 7.429291248321533 L 11.773096084594727 12.2427339553833 L 19.98956298828125 15.646363258361816 L 21.48200035095215 12.043000221252441 L 28.87299919128418 15.104999542236328 L 27.30470085144043 18.891185760498047 L 23.263999938964844 17.218000411987305 L 21.73200035095215 20.91699981689453 L 25.77254295349121 22.590120315551758 L 24.2810001373291 26.19099998474121 L 16.889999389648438 23.1299991607666 L 18.38124656677246 19.529508590698242 L 18.459230422973633 19.34122657775879 L 6.547069549560547 14.407588005065918 L 2.700000047683716 12.814253807067871 L 2.700000047683716 16.001216888427734 L 2.700000047683716 26.142000198364258 L -2.4030001163482666 26.142000198364258 L -3.953000068664551 26.142000198364258 L -4.5 26.142000198364258 L -4.5 16.311609268188477 L -4.5 -47.27503204345703 L -7.773687362670898 -45.91903305053711 L -9.503000259399414 -45.202728271484375 L -26.97967529296875 -37.96368408203125 L -25.448999404907227 -34.268001556396484 L -32.84000015258789 -31.207000732421875 L -34.40823745727539 -34.99303436279297 M 1.4804179668426514 -70.0999984741211 L 2.1410000324249268 -70.0999984741211 L 2.1410000324249268 -64.89800262451172 L 2.1410000324249268 -58.75299835205078 L -4.400000095367432 -58.75299835205078 L -4.400000095367432 -64.89800262451172 L -4.400000095367432 -70.0999984741211 L 1.4804179668426514 -70.0999984741211 z" fill="none" stroke="rgb(0,0,255)" stroke-width="0.01mm" />
</svg>